<svg width="172" height="41" viewBox="0 0 172 41" fill="none" xmlns="http://www.w3.org/2000/svg">
<g id="Logo-enerBit 2" clip-path="url(#clip0_970_1680)">
<path id="Vector" d="M28.1932 27.5851C28.7356 19.1602 24.1237 11.3181 14.5742 11.3181C6.05565 11.3181 0.25 17.5705 0.25 25.7836C0.25 34.2614 5.73011 40.1959 14.5742 40.1959C20.9224 40.1959 25.5344 37.4405 27.7047 30.9763H20.9224C20.4342 32.6719 17.9383 34.5264 14.8455 34.5264C10.5591 34.5264 8.17174 32.3538 7.95471 27.5851H28.1932ZM7.95471 22.8163C8.06321 20.6968 9.47394 16.9876 14.3572 16.9876C18.1011 16.9876 19.783 19.0013 20.4884 22.8163H7.95471Z" fill="#ED7004"/>
<path id="Vector_2" d="M30.5924 39.4541H38.2972V25.0947C38.2972 19.531 40.0877 17.2526 44.2656 17.2526C47.8467 17.2526 49.2031 19.4781 49.2031 23.982V39.4541H56.9079V22.6043C56.9079 15.822 54.8459 11.3181 46.653 11.3181C43.3975 11.3181 40.0335 12.8018 38.0801 15.875H37.9173V12.0599H30.5924V39.4541Z" fill="#ED7004"/>
<path id="Vector_3" d="M87.1715 27.5851C87.7139 19.1602 83.1019 11.3181 73.5525 11.3181C65.0339 11.3181 59.2283 17.5705 59.2283 25.7836C59.2283 34.2614 64.7084 40.1959 73.5525 40.1959C79.9007 40.1959 84.5127 37.4405 86.683 30.9763H79.9007C79.4124 32.6719 76.9166 34.5264 73.8238 34.5264C69.5375 34.5264 67.15 32.3538 66.9331 27.5851H87.1715ZM66.9331 22.8163C67.0415 20.6968 68.4522 16.9876 73.3355 16.9876C77.0794 16.9876 78.7613 19.0013 79.4666 22.8163H66.9331Z" fill="#ED7004"/>
<path id="Vector_4" d="M89.5706 39.4541H97.2754V27.1082C97.2754 22.2864 99.2286 18.3124 104.872 18.3124C105.794 18.3124 106.933 18.4184 107.639 18.5774V11.5831C107.15 11.4241 106.499 11.3181 105.957 11.3181C102.213 11.3181 98.4149 13.7025 97.0041 17.1466H96.8956V12.0599H89.5706V39.4541Z" fill="#ED7004"/>
<path id="Vector_5" d="M117.822 22.6038H127.101C130.736 22.6038 133.232 24.1405 133.232 28.0086C133.232 31.9295 130.302 32.9893 126.938 32.9893H117.822V22.6038ZM109.304 39.4537H128.077C135.077 39.4537 141.75 36.1684 141.75 28.4854C141.75 23.7695 139.363 20.2194 134.642 18.8948C138.006 17.3052 139.905 14.7088 139.905 10.9998C139.905 3.95252 134.914 1.62109 127.535 1.62109H109.304V39.4537ZM117.822 8.08548H125.798C128.837 8.08548 131.658 8.8273 131.658 12.4304C131.658 15.6096 129.434 16.9343 126.449 16.9343H117.822V8.08548Z" fill="#53358E"/>
<path id="Vector_6" d="M144.739 39.4537H152.444V25.7566V12.0595H144.739V25.7566V39.4537ZM152.444 1.62109H144.739V7.82054H152.444V1.62109Z" fill="#53358E"/>
<path id="Vector_7" d="M166.107 3.84644H158.402V12.0594H153.736V17.0931H158.402V33.2542C158.402 38.7117 162.526 39.7715 167.246 39.7715C168.766 39.7715 170.448 39.7186 171.75 39.5065V33.625C170.936 33.7841 170.176 33.837 169.362 33.837C166.758 33.837 166.107 33.2011 166.107 30.6577V17.0931H171.75V12.0594H166.107V3.84644Z" fill="#53358E"/>
</g>
<defs>
<clipPath id="clip0_970_1680">
<rect width="171.5" height="40.1953" fill="white" transform="translate(0.25)"/>
</clipPath>
</defs>
</svg>
